# Blender3D v248 OBJ File: 
# www.blender3d.org
mtllib sphere.mtl
v 0.000000 -1.000000 0.000000
v 0.723600 -0.447215 0.525720
v -0.276385 -0.447215 0.850640
v -0.894425 -0.447215 0.000000
v -0.276385 -0.447215 -0.850640
v 0.723600 -0.447215 -0.525720
v 0.276385 0.447215 0.850640
v -0.723600 0.447215 0.525720
v -0.723600 0.447215 -0.525720
v 0.276385 0.447215 -0.850640
v 0.894425 0.447215 -0.000000
v 0.000000 1.000000 -0.000000
v 0.425323 -0.850654 0.309011
v -0.162456 -0.850654 0.499995
v 0.262869 -0.525738 0.809012
v 0.425323 -0.850654 -0.309011
v 0.850648 -0.525736 0.000000
v -0.525730 -0.850652 0.000000
v -0.688189 -0.525736 0.499997
v -0.162456 -0.850654 -0.499995
v -0.688189 -0.525736 -0.499997
v 0.262869 -0.525738 -0.809012
v 0.951058 -0.000000 -0.309013
v 0.951058 0.000000 0.309013
v 0.587786 0.000000 0.809017
v 0.000000 0.000000 1.000000
v -0.587786 0.000000 0.809017
v -0.951058 0.000000 0.309013
v -0.951058 -0.000000 -0.309013
v -0.587786 -0.000000 -0.809017
v 0.000000 -0.000000 -1.000000
v 0.587786 -0.000000 -0.809017
v 0.688189 0.525736 0.499997
v -0.262869 0.525738 0.809012
v -0.850648 0.525736 -0.000000
v -0.262869 0.525738 -0.809012
v 0.688189 0.525736 -0.499997
v 0.525730 0.850652 -0.000000
v 0.162456 0.850654 0.499995
v -0.425323 0.850654 0.309011
v -0.425323 0.850654 -0.309011
v 0.162456 0.850654 -0.499995
v 0.221076 -0.961939 0.160619
v 0.597194 -0.674615 0.433882
v -0.084442 -0.961939 0.259889
v -0.228103 -0.674615 0.702042
v -0.007026 -0.505728 0.862665
v 0.512753 -0.505727 0.693775
v 0.597194 -0.674615 -0.433882
v 0.221076 -0.961939 -0.160619
v 0.818272 -0.505726 -0.273262
v 0.818272 -0.505726 0.273262
v -0.738174 -0.674610 0.000000
v -0.273266 -0.961939 0.000000
v -0.822618 -0.505724 0.259890
v -0.501373 -0.505727 0.702043
v -0.228103 -0.674615 -0.702042
v -0.084442 -0.961939 -0.259889
v -0.822618 -0.505724 -0.259890
v -0.501373 -0.505727 -0.702043
v 0.512753 -0.505728 -0.693775
v -0.007026 -0.505728 -0.862665
v 0.870465 -0.232456 -0.433883
v 0.959253 0.232455 -0.160620
v 0.959253 0.232455 0.160620
v 0.870465 -0.232456 0.433883
v 0.449185 0.232457 0.862668
v 0.681641 -0.232457 0.693779
v 0.143661 0.232457 0.961938
v -0.143661 -0.232456 0.961938
v -0.681641 0.232457 0.693779
v -0.449185 -0.232457 0.862668
v -0.870465 0.232456 0.433883
v -0.959253 -0.232455 0.160620
v -0.870465 0.232456 -0.433883
v -0.959253 -0.232455 -0.160620
v -0.681641 0.232457 -0.693779
v -0.449185 -0.232457 -0.862668
v 0.143661 0.232456 -0.961938
v -0.143661 -0.232457 -0.961938
v 0.681641 -0.232457 -0.693779
v 0.449185 0.232457 -0.862668
v 0.501373 0.505727 0.702043
v 0.822618 0.505724 0.259890
v 0.007026 0.505728 0.862665
v -0.512753 0.505728 0.693775
v -0.818272 0.505726 0.273262
v -0.818272 0.505726 -0.273262
v -0.512753 0.505727 -0.693775
v 0.007026 0.505728 -0.862665
v 0.501373 0.505727 -0.702043
v 0.822618 0.505724 -0.259890
v 0.738174 0.674610 -0.000000
v 0.273266 0.961939 -0.000000
v 0.228103 0.674615 0.702042
v 0.084442 0.961939 0.259889
v -0.597194 0.674615 0.433882
v -0.221076 0.961939 0.160619
v -0.597194 0.674615 -0.433882
v -0.221076 0.961939 -0.160619
v 0.228103 0.674615 -0.702042
v 0.084442 0.961939 -0.259889
v 0.361804 -0.723612 0.587779
v 0.138197 -0.894430 0.425320
v 0.052790 -0.723612 0.688185
v 0.670817 -0.723611 0.162457
v 0.447210 -0.894429 0.000000
v 0.670817 -0.723611 -0.162457
v -0.447211 -0.723612 0.525727
v -0.361800 -0.894429 0.262863
v -0.638195 -0.723609 0.262864
v -0.638195 -0.723609 -0.262864
v -0.361800 -0.894429 -0.262863
v -0.447211 -0.723612 -0.525727
v 0.052790 -0.723612 -0.688185
v 0.138197 -0.894430 -0.425319
v 0.361804 -0.723612 -0.587779
v 0.947213 -0.276396 0.162458
v 0.947213 -0.276396 -0.162458
v 1.000000 0.000000 0.000000
v 0.138199 -0.276397 0.951055
v 0.447216 -0.276397 0.850648
v 0.309017 0.000000 0.951056
v -0.861804 -0.276396 0.425322
v -0.670820 -0.276396 0.688190
v -0.809018 0.000000 0.587783
v -0.670820 -0.276396 -0.688190
v -0.861804 -0.276396 -0.425322
v -0.809018 -0.000000 -0.587783
v 0.447216 -0.276397 -0.850648
v 0.138199 -0.276397 -0.951055
v 0.309017 -0.000000 -0.951056
v 0.861804 0.276396 0.425322
v 0.809018 0.000000 0.587783
v 0.670820 0.276396 0.688190
v -0.138199 0.276397 0.951055
v -0.309017 0.000000 0.951056
v -0.447216 0.276397 0.850648
v -0.947213 0.276396 0.162458
v -1.000000 0.000000 0.000000
v -0.947213 0.276396 -0.162458
v -0.447216 0.276397 -0.850648
v -0.309017 -0.000000 -0.951056
v -0.138199 0.276397 -0.951055
v 0.670820 0.276396 -0.688190
v 0.809018 -0.000000 -0.587783
v 0.861804 0.276396 -0.425322
v 0.447211 0.723612 0.525727
v 0.638195 0.723609 0.262864
v 0.361800 0.894429 0.262863
v -0.361803 0.723612 0.587779
v -0.052790 0.723612 0.688185
v -0.138197 0.894430 0.425319
v -0.670817 0.723611 -0.162457
v -0.670817 0.723611 0.162457
v -0.447210 0.894429 -0.000000
v -0.052790 0.723612 -0.688185
v -0.361803 0.723612 -0.587779
v -0.138197 0.894430 -0.425320
v 0.638195 0.723609 -0.262864
v 0.447211 0.723612 -0.525727
v 0.361800 0.894429 -0.262863
vn 0.352184 -0.728355 0.587725
vn 0.515091 -0.505295 0.692312
vn 0.262856 -0.525712 0.808985
vn 0.598682 -0.672536 0.434980
vn 0.425306 -0.850642 0.309000
vn 0.723594 -0.447188 0.525712
vn 0.141148 -0.889553 0.434400
vn 0.060549 -0.728355 0.682485
vn -0.162450 -0.850642 0.499985
vn -0.228675 -0.672536 0.703818
vn -0.009766 -0.505295 0.862850
vn -0.276376 -0.447218 0.850642
vn -0.083590 -0.962676 0.257332
vn 0.218909 -0.962676 0.159032
vn 0.000000 -1.000000 0.000000
vn 0.667806 -0.728355 0.153294
vn 0.850642 -0.525712 0.000000
vn 0.817621 -0.505295 0.275918
vn 0.456771 -0.889553 0.000000
vn 0.667806 -0.728355 -0.153294
vn 0.425306 -0.850642 -0.309000
vn 0.598682 -0.672536 -0.434980
vn 0.723594 -0.447218 -0.525712
vn 0.817621 -0.505295 -0.275918
vn 0.218909 -0.962676 -0.159032
vn -0.450148 -0.728355 0.516556
vn -0.499252 -0.505295 0.703818
vn -0.688162 -0.525712 0.499985
vn -0.369518 -0.889553 0.268471
vn -0.630390 -0.728355 0.268471
vn -0.525712 -0.850642 0.000000
vn -0.740013 -0.672536 0.000000
vn -0.823634 -0.505295 0.257332
vn -0.894406 -0.447188 0.000000
vn -0.270577 -0.962676 0.000000
vn -0.630390 -0.728355 -0.268471
vn -0.823634 -0.505295 -0.257332
vn -0.688162 -0.525712 -0.499985
vn -0.369518 -0.889553 -0.268471
vn -0.450148 -0.728355 -0.516556
vn -0.162450 -0.850642 -0.499985
vn -0.228675 -0.672536 -0.703818
vn -0.499252 -0.505295 -0.703818
vn -0.276376 -0.447218 -0.850642
vn -0.083590 -0.962676 -0.257332
vn 0.060549 -0.728355 -0.682485
vn -0.009766 -0.505295 -0.862850
vn 0.262856 -0.525712 -0.808985
vn 0.141148 -0.889553 -0.434400
vn 0.352184 -0.728355 -0.587725
vn 0.515091 -0.505295 -0.692312
vn 0.950102 -0.271554 0.153294
vn 0.951048 0.000000 0.309000
vn 0.869289 -0.234718 0.434980
vn 0.950102 -0.271554 -0.153294
vn 0.999939 -0.010712 0.000000
vn 0.951048 0.000000 -0.309000
vn 0.958953 0.234718 -0.159032
vn 0.894406 0.447188 0.000000
vn 0.958953 0.234718 0.159032
vn 0.869289 -0.234718 -0.434980
vn 0.147771 -0.271554 0.950987
vn 0.000000 0.000000 1.000000
vn -0.145054 -0.234718 0.961150
vn 0.439406 -0.271554 0.856227
vn 0.308969 -0.010712 0.950987
vn 0.587756 0.000000 0.809015
vn 0.447584 0.234718 0.862850
vn 0.276376 0.447218 0.850642
vn 0.145054 0.234718 0.961150
vn 0.682302 -0.234718 0.692312
vn -0.858760 -0.271554 0.434400
vn -0.951048 0.000000 0.309000
vn -0.958953 -0.234718 0.159032
vn -0.678518 -0.271554 0.682485
vn -0.808954 -0.010712 0.587725
vn -0.587756 0.000000 0.809015
vn -0.682302 0.234718 0.692312
vn -0.723594 0.447218 0.525712
vn -0.869289 0.234718 0.434980
vn -0.447584 -0.234718 0.862850
vn -0.678518 -0.271554 -0.682485
vn -0.587756 0.000000 -0.809015
vn -0.447584 -0.234718 -0.862850
vn -0.858760 -0.271554 -0.434400
vn -0.808954 -0.010712 -0.587725
vn -0.951048 0.000000 -0.309000
vn -0.869289 0.234718 -0.434980
vn -0.723594 0.447218 -0.525712
vn -0.682302 0.234718 -0.692312
vn -0.958953 -0.234718 -0.159032
vn 0.439406 -0.271554 -0.856227
vn 0.587756 0.000000 -0.809015
vn 0.682302 -0.234718 -0.692312
vn 0.147771 -0.271554 -0.950987
vn 0.308969 -0.010712 -0.950987
vn 0.000000 0.000000 -1.000000
vn 0.145054 0.234718 -0.961150
vn 0.276376 0.447218 -0.850642
vn 0.447584 0.234718 -0.862850
vn -0.145054 -0.234718 -0.961150
vn 0.858760 0.271554 0.434400
vn 0.823634 0.505295 0.257332
vn 0.688162 0.525712 0.499985
vn 0.808954 0.010712 0.587725
vn 0.678518 0.271554 0.682485
vn 0.499252 0.505295 0.703818
vn -0.147771 0.271554 0.950987
vn 0.009766 0.505295 0.862850
vn -0.262856 0.525712 0.808985
vn -0.308969 0.010712 0.950987
vn -0.439406 0.271554 0.856227
vn -0.515091 0.505295 0.692312
vn -0.950102 0.271554 0.153294
vn -0.817621 0.505295 0.275918
vn -0.850642 0.525712 0.000000
vn -0.999939 0.010712 0.000000
vn -0.950102 0.271554 -0.153294
vn -0.817621 0.505295 -0.275918
vn -0.439406 0.271554 -0.856227
vn -0.515091 0.505295 -0.692312
vn -0.262856 0.525712 -0.808985
vn -0.308969 0.010712 -0.950987
vn -0.147771 0.271554 -0.950987
vn 0.009766 0.505295 -0.862850
vn 0.678518 0.271554 -0.682485
vn 0.499252 0.505295 -0.703818
vn 0.688162 0.525712 -0.499985
vn 0.808954 0.010712 -0.587725
vn 0.858760 0.271554 -0.434400
vn 0.823634 0.505295 -0.257332
vn 0.450148 0.728355 0.516556
vn 0.162450 0.850642 0.499985
vn 0.228675 0.672536 0.703818
vn 0.630390 0.728355 0.268471
vn 0.369518 0.889553 0.268471
vn 0.525712 0.850642 0.000000
vn 0.270577 0.962676 0.000000
vn 0.000000 1.000000 0.000000
vn 0.083590 0.962676 0.257332
vn 0.740013 0.672536 0.000000
vn -0.352184 0.728355 0.587725
vn -0.425306 0.850642 0.309000
vn -0.598682 0.672536 0.434980
vn -0.060549 0.728355 0.682485
vn -0.141148 0.889553 0.434400
vn -0.218909 0.962676 0.159032
vn -0.667806 0.728355 -0.153294
vn -0.425306 0.850642 -0.309000
vn -0.598682 0.672536 -0.434980
vn -0.667806 0.728355 0.153294
vn -0.456771 0.889553 0.000000
vn -0.218909 0.962676 -0.159032
vn -0.060549 0.728355 -0.682485
vn 0.162450 0.850642 -0.499985
vn 0.228675 0.672536 -0.703818
vn -0.352184 0.728355 -0.587725
vn -0.141148 0.889553 -0.434400
vn 0.083590 0.962676 -0.257332
vn 0.630390 0.728355 -0.268471
vn 0.450148 0.728355 -0.516556
vn 0.369518 0.889553 -0.268471
usemtl Material.001
s 1
f 103//1 48//2 15//3
f 48//2 103//1 44//4
f 13//5 44//4 103//1
f 44//4 2//6 48//2
f 103//1 104//7 13//5
f 104//7 103//1 105//8
f 15//3 105//8 103//1
f 105//8 14//9 104//7
f 46//10 47//11 3//12
f 47//11 46//10 105//8
f 14//9 105//8 46//10
f 105//8 15//3 47//11
f 45//13 104//7 14//9
f 104//7 45//13 43//14
f 1//15 43//14 45//13
f 43//14 13//5 104//7
f 106//16 17//17 52//18
f 52//18 44//4 106//16
f 13//5 106//16 44//4
f 44//4 52//18 2//6
f 106//16 13//5 107//19
f 107//19 108//20 106//16
f 17//17 106//16 108//20
f 108//20 107//19 16//21
f 49//22 6//23 51//24
f 51//24 108//20 49//22
f 16//21 49//22 108//20
f 108//20 51//24 17//17
f 50//25 16//21 107//19
f 107//19 43//14 50//25
f 1//15 50//25 43//14
f 43//14 107//19 13//5
f 109//26 56//27 19//28
f 56//27 109//26 46//10
f 14//9 46//10 109//26
f 46//10 3//12 56//27
f 109//26 110//29 14//9
f 110//29 109//26 111//30
f 19//28 111//30 109//26
f 111//30 18//31 110//29
f 53//32 55//33 4//34
f 55//33 53//32 111//30
f 18//31 111//30 53//32
f 111//30 19//28 55//33
f 54//35 110//29 18//31
f 110//29 54//35 45//13
f 1//15 45//13 54//35
f 45//13 14//9 110//29
f 112//36 59//37 21//38
f 59//37 112//36 53//32
f 18//31 53//32 112//36
f 53//32 4//34 59//37
f 112//36 113//39 18//31
f 113//39 112//36 114//40
f 21//38 114//40 112//36
f 114//40 20//41 113//39
f 57//42 60//43 5//44
f 60//43 57//42 114//40
f 20//41 114//40 57//42
f 114//40 21//38 60//43
f 58//45 113//39 20//41
f 113//39 58//45 54//35
f 1//15 54//35 58//45
f 54//35 18//31 113//39
f 115//46 62//47 22//48
f 62//47 115//46 57//42
f 20//41 57//42 115//46
f 57//42 5//44 62//47
f 115//46 116//49 20//41
f 116//49 115//46 117//50
f 22//48 117//50 115//46
f 117//50 16//21 116//49
f 49//22 61//51 6//23
f 61//51 49//22 117//50
f 16//21 117//50 49//22
f 117//50 22//48 61//51
f 50//25 116//49 16//21
f 116//49 50//25 58//45
f 1//15 58//45 50//25
f 58//45 20//41 116//49
f 118//52 24//53 66//54
f 66//54 52//18 118//52
f 17//17 118//52 52//18
f 52//18 66//54 2//6
f 118//52 17//17 119//55
f 119//55 120//56 118//52
f 24//53 118//52 120//56
f 120//56 119//55 23//57
f 64//58 11//59 65//60
f 65//60 120//56 64//58
f 23//57 64//58 120//56
f 120//56 65//60 24//53
f 63//61 23//57 119//55
f 119//55 51//24 63//61
f 6//23 63//61 51//24
f 51//24 119//55 17//17
f 121//62 26//63 70//64
f 70//64 47//11 121//62
f 15//3 121//62 47//11
f 47//11 70//64 3//12
f 121//62 15//3 122//65
f 122//65 123//66 121//62
f 26//63 121//62 123//66
f 123//66 122//65 25//67
f 67//68 7//69 69//70
f 69//70 123//66 67//68
f 25//67 67//68 123//66
f 123//66 69//70 26//63
f 68//71 25//67 122//65
f 122//65 48//2 68//71
f 2//6 68//71 48//2
f 48//2 122//65 15//3
f 124//72 28//73 74//74
f 74//74 55//33 124//72
f 19//28 124//72 55//33
f 55//33 74//74 4//34
f 124//72 19//28 125//75
f 125//75 126//76 124//72
f 28//73 124//72 126//76
f 126//76 125//75 27//77
f 71//78 8//79 73//80
f 73//80 126//76 71//78
f 27//77 71//78 126//76
f 126//76 73//80 28//73
f 72//81 27//77 125//75
f 125//75 56//27 72//81
f 3//12 72//81 56//27
f 56//27 125//75 19//28
f 127//82 30//83 78//84
f 78//84 60//43 127//82
f 21//38 127//82 60//43
f 60//43 78//84 5//44
f 127//82 21//38 128//85
f 128//85 129//86 127//82
f 30//83 127//82 129//86
f 129//86 128//85 29//87
f 75//88 9//89 77//90
f 77//90 129//86 75//88
f 29//87 75//88 129//86
f 129//86 77//90 30//83
f 76//91 29//87 128//85
f 128//85 59//37 76//91
f 4//34 76//91 59//37
f 59//37 128//85 21//38
f 130//92 32//93 81//94
f 81//94 61//51 130//92
f 22//48 130//92 61//51
f 61//51 81//94 6//23
f 130//92 22//48 131//95
f 131//95 132//96 130//92
f 32//93 130//92 132//96
f 132//96 131//95 31//97
f 79//98 10//99 82//100
f 82//100 132//96 79//98
f 31//97 79//98 132//96
f 132//96 82//100 32//93
f 80//101 31//97 131//95
f 131//95 62//47 80//101
f 5//44 80//101 62//47
f 62//47 131//95 22//48
f 133//102 84//103 33//104
f 84//103 133//102 65//60
f 24//53 65//60 133//102
f 65//60 11//59 84//103
f 133//102 134//105 24//53
f 134//105 133//102 135//106
f 33//104 135//106 133//102
f 135//106 25//67 134//105
f 67//68 83//107 7//69
f 83//107 67//68 135//106
f 25//67 135//106 67//68
f 135//106 33//104 83//107
f 68//71 134//105 25//67
f 134//105 68//71 66//54
f 2//6 66//54 68//71
f 66//54 24//53 134//105
f 136//108 85//109 34//110
f 85//109 136//108 69//70
f 26//63 69//70 136//108
f 69//70 7//69 85//109
f 136//108 137//111 26//63
f 137//111 136//108 138//112
f 34//110 138//112 136//108
f 138//112 27//77 137//111
f 71//78 86//113 8//79
f 86//113 71//78 138//112
f 27//77 138//112 71//78
f 138//112 34//110 86//113
f 72//81 137//111 27//77
f 137//111 72//81 70//64
f 3//12 70//64 72//81
f 70//64 26//63 137//111
f 139//114 87//115 35//116
f 87//115 139//114 73//80
f 28//73 73//80 139//114
f 73//80 8//79 87//115
f 139//114 140//117 28//73
f 140//117 139//114 141//118
f 35//116 141//118 139//114
f 141//118 29//87 140//117
f 75//88 88//119 9//89
f 88//119 75//88 141//118
f 29//87 141//118 75//88
f 141//118 35//116 88//119
f 76//91 140//117 29//87
f 140//117 76//91 74//74
f 4//34 74//74 76//91
f 74//74 28//73 140//117
f 142//120 89//121 36//122
f 89//121 142//120 77//90
f 30//83 77//90 142//120
f 77//90 9//89 89//121
f 142//120 143//123 30//83
f 143//123 142//120 144//124
f 36//122 144//124 142//120
f 144//124 31//97 143//123
f 79//98 90//125 10//99
f 90//125 79//98 144//124
f 31//97 144//124 79//98
f 144//124 36//122 90//125
f 80//101 143//123 31//97
f 143//123 80//101 78//84
f 5//44 78//84 80//101
f 78//84 30//83 143//123
f 145//126 91//127 37//128
f 91//127 145//126 82//100
f 32//93 82//100 145//126
f 82//100 10//99 91//127
f 145//126 146//129 32//93
f 146//129 145//126 147//130
f 37//128 147//130 145//126
f 147//130 23//57 146//129
f 64//58 92//131 11//59
f 92//131 64//58 147//130
f 23//57 147//130 64//58
f 147//130 37//128 92//131
f 63//61 146//129 23//57
f 146//129 63//61 81//94
f 6//23 81//94 63//61
f 81//94 32//93 146//129
f 148//132 39//133 95//134
f 95//134 83//107 148//132
f 33//104 148//132 83//107
f 83//107 95//134 7//69
f 148//132 33//104 149//135
f 149//135 150//136 148//132
f 39//133 148//132 150//136
f 150//136 149//135 38//137
f 94//138 12//139 96//140
f 96//140 150//136 94//138
f 38//137 94//138 150//136
f 150//136 96//140 39//133
f 93//141 38//137 149//135
f 149//135 84//103 93//141
f 11//59 93//141 84//103
f 84//103 149//135 33//104
f 151//142 40//143 97//144
f 97//144 86//113 151//142
f 34//110 151//142 86//113
f 86//113 97//144 8//79
f 151//142 34//110 152//145
f 152//145 153//146 151//142
f 40//143 151//142 153//146
f 153//146 152//145 39//133
f 96//140 12//139 98//147
f 98//147 153//146 96//140
f 39//133 96//140 153//146
f 153//146 98//147 40//143
f 95//134 39//133 152//145
f 152//145 85//109 95//134
f 7//69 95//134 85//109
f 85//109 152//145 34//110
f 154//148 41//149 99//150
f 99//150 88//119 154//148
f 35//116 154//148 88//119
f 88//119 99//150 9//89
f 154//148 35//116 155//151
f 155//151 156//152 154//148
f 41//149 154//148 156//152
f 156//152 155//151 40//143
f 98//147 12//139 100//153
f 100//153 156//152 98//147
f 40//143 98//147 156//152
f 156//152 100//153 41//149
f 97//144 40//143 155//151
f 155//151 87//115 97//144
f 8//79 97//144 87//115
f 87//115 155//151 35//116
f 157//154 42//155 101//156
f 101//156 90//125 157//154
f 36//122 157//154 90//125
f 90//125 101//156 10//99
f 157//154 36//122 158//157
f 158//157 159//158 157//154
f 42//155 157//154 159//158
f 159//158 158//157 41//149
f 100//153 12//139 102//159
f 102//159 159//158 100//153
f 41//149 100//153 159//158
f 159//158 102//159 42//155
f 99//150 41//149 158//157
f 158//157 89//121 99//150
f 9//89 99//150 89//121
f 89//121 158//157 36//122
f 160//160 38//137 93//141
f 93//141 92//131 160//160
f 37//128 160//160 92//131
f 92//131 93//141 11//59
f 160//160 37//128 161//161
f 161//161 162//162 160//160
f 38//137 160//160 162//162
f 162//162 161//161 42//155
f 102//159 12//139 94//138
f 94//138 162//162 102//159
f 42//155 102//159 162//162
f 162//162 94//138 38//137
f 101//156 42//155 161//161
f 161//161 91//127 101//156
f 10//99 101//156 91//127
f 91//127 161//161 37//128
